<mxfile host="drawio-plugin" modified="2023-02-04T14:08:15.062Z" agent="5.0 (Windows NT 6.2; Win64; x64) AppleWebKit/537.36 (KHTML, like Gecko) Chrome/97.0.4692.45 Safari/537.36" etag="vfbSgPZYXTf3cLoYkvt9" version="20.5.3" type="embed"><diagram id="23iRSUPoRavnBvh4doch" name="Page-1"><mxGraphModel dx="1270" dy="855" grid="1" gridSize="10" guides="1" tooltips="1" connect="1" arrows="1" fold="1" page="1" pageScale="1" pageWidth="827" pageHeight="1169" math="0" shadow="0"><root><mxCell id="0"/><mxCell id="1" parent="0"/><mxCell id="2" value="&lt;div style=&quot;text-align: center; box-sizing: border-box; width: 100%; background: rgb(228, 228, 228); padding: 2px;&quot;&gt;&lt;b&gt;Customers&lt;/b&gt;&lt;/div&gt;&lt;table style=&quot;width:100%;font-size:1em;&quot; cellpadding=&quot;2&quot; cellspacing=&quot;0&quot;&gt;&lt;tbody&gt;&lt;tr&gt;&lt;td&gt;castomer_id&lt;/td&gt;&lt;td style=&quot;text-align: right;&quot;&gt;int&lt;/td&gt;&lt;/tr&gt;&lt;tr&gt;&lt;td&gt;name&lt;/td&gt;&lt;td style=&quot;text-align: right;&quot;&gt;varchar(30)&lt;/td&gt;&lt;/tr&gt;&lt;tr&gt;&lt;td&gt;surname&lt;br&gt;&lt;/td&gt;&lt;td style=&quot;text-align: right;&quot;&gt;varchar(30)&lt;br&gt;&lt;/td&gt;&lt;/tr&gt;&lt;tr&gt;&lt;td&gt;phone&lt;br&gt;&lt;/td&gt;&lt;td style=&quot;text-align: right;&quot;&gt;int&lt;/td&gt;&lt;/tr&gt;&lt;tr&gt;&lt;td&gt;hash&lt;/td&gt;&lt;td style=&quot;text-align: right;&quot;&gt;varchar(128)&lt;/td&gt;&lt;/tr&gt;&lt;tr&gt;&lt;td&gt;login&lt;/td&gt;&lt;td style=&quot;text-align: right;&quot;&gt;varchar(30)&lt;/td&gt;&lt;/tr&gt;&lt;/tbody&gt;&lt;/table&gt;" style="verticalAlign=top;align=left;overflow=fill;html=1;strokeWidth=2;shadow=1;enumerate=0;comic=0;arcSize=12;" parent="1" vertex="1"><mxGeometry x="40" y="120" width="180" height="130" as="geometry"/></mxCell><mxCell id="16" style="edgeStyle=orthogonalEdgeStyle;rounded=0;orthogonalLoop=1;jettySize=auto;html=1;entryX=-0.002;entryY=0.35;entryDx=0;entryDy=0;entryPerimeter=0;startArrow=ERoneToMany;startFill=0;endArrow=ERmandOne;endFill=0;exitX=0;exitY=0.5;exitDx=0;exitDy=0;" parent="1" source="4" target="6" edge="1"><mxGeometry relative="1" as="geometry"/></mxCell><mxCell id="4" value="&lt;div style=&quot;text-align: center; box-sizing: border-box; width: 100%; background: rgb(228, 228, 228); padding: 2px;&quot;&gt;&lt;b&gt;Tables&lt;/b&gt;&lt;/div&gt;&lt;table style=&quot;width:100%;font-size:1em;&quot; cellpadding=&quot;2&quot; cellspacing=&quot;0&quot;&gt;&lt;tbody&gt;&lt;tr&gt;&lt;td&gt;table_id&lt;/td&gt;&lt;td style=&quot;text-align: right;&quot;&gt;int&lt;/td&gt;&lt;/tr&gt;&lt;tr&gt;&lt;td&gt;hall_id&lt;/td&gt;&lt;td style=&quot;text-align: right;&quot;&gt;int&lt;/td&gt;&lt;/tr&gt;&lt;tr&gt;&lt;td&gt;isval&lt;/td&gt;&lt;td style=&quot;text-align: right;&quot;&gt;text&lt;/td&gt;&lt;/tr&gt;&lt;tr&gt;&lt;td&gt;&lt;br&gt;&lt;/td&gt;&lt;td&gt;&lt;br&gt;&lt;/td&gt;&lt;/tr&gt;&lt;/tbody&gt;&lt;/table&gt;" style="verticalAlign=top;align=left;overflow=fill;html=1;strokeWidth=2;shadow=1;enumerate=0;comic=0;arcSize=12;" parent="1" vertex="1"><mxGeometry x="560" y="120" width="180" height="90" as="geometry"/></mxCell><mxCell id="6" value="&lt;div style=&quot;text-align: center; box-sizing: border-box; width: 100%; background: rgb(228, 228, 228); padding: 2px;&quot;&gt;&lt;b&gt;Halls&lt;/b&gt;&lt;/div&gt;&lt;table style=&quot;width:100%;font-size:1em;&quot; cellpadding=&quot;2&quot; cellspacing=&quot;0&quot;&gt;&lt;tbody&gt;&lt;tr&gt;&lt;td&gt;hall_id&lt;/td&gt;&lt;td style=&quot;text-align: right;&quot;&gt;int&lt;/td&gt;&lt;/tr&gt;&lt;tr&gt;&lt;td&gt;name&lt;/td&gt;&lt;td style=&quot;text-align: right;&quot;&gt;varchar(30)&lt;/td&gt;&lt;/tr&gt;&lt;tr&gt;&lt;td&gt;description&lt;br&gt;&lt;/td&gt;&lt;td style=&quot;text-align: right;&quot;&gt;text&lt;/td&gt;&lt;/tr&gt;&lt;/tbody&gt;&lt;/table&gt;" style="verticalAlign=top;align=left;overflow=fill;html=1;strokeWidth=2;shadow=1;enumerate=0;comic=0;arcSize=12;" parent="1" vertex="1"><mxGeometry x="560" y="280" width="180" height="80" as="geometry"/></mxCell><mxCell id="7" value="&lt;div style=&quot;text-align: center; box-sizing: border-box; width: 100%; background: rgb(228, 228, 228); padding: 2px;&quot;&gt;&lt;b&gt;Orders&lt;/b&gt;&lt;/div&gt;&lt;table style=&quot;width:100%;font-size:1em;&quot; cellpadding=&quot;2&quot; cellspacing=&quot;0&quot;&gt;&lt;tbody&gt;&lt;tr&gt;&lt;td&gt;order_id&lt;/td&gt;&lt;td style=&quot;text-align: right;&quot;&gt;int&lt;/td&gt;&lt;/tr&gt;&lt;tr&gt;&lt;td&gt;datetimeBeg&lt;/td&gt;&lt;td style=&quot;text-align: right;&quot;&gt;datetime&lt;/td&gt;&lt;/tr&gt;&lt;tr&gt;&lt;td&gt;datetimeEnd&lt;/td&gt;&lt;td style=&quot;text-align: right;&quot;&gt;datetime&lt;/td&gt;&lt;/tr&gt;&lt;tr&gt;&lt;td&gt;customer_id&lt;/td&gt;&lt;td style=&quot;text-align: right;&quot;&gt;int&lt;/td&gt;&lt;/tr&gt;&lt;tr&gt;&lt;td&gt;table_id&lt;br&gt;&lt;/td&gt;&lt;td style=&quot;text-align: right;&quot;&gt;int&lt;/td&gt;&lt;/tr&gt;&lt;/tbody&gt;&lt;/table&gt;" style="verticalAlign=top;align=left;overflow=fill;html=1;strokeWidth=2;shadow=1;enumerate=0;comic=0;arcSize=12;" parent="1" vertex="1"><mxGeometry x="300" y="120" width="180" height="120" as="geometry"/></mxCell><mxCell id="13" value="&lt;b&gt;&lt;font style=&quot;font-size: 20px;&quot;&gt;ERD бронирования столов ресторана&lt;/font&gt;&lt;/b&gt;" style="text;html=1;strokeColor=none;fillColor=none;align=center;verticalAlign=middle;whiteSpace=wrap;rounded=0;shadow=1;" parent="1" vertex="1"><mxGeometry x="130" y="40" width="380" height="40" as="geometry"/></mxCell><mxCell id="14" value="" style="edgeStyle=entityRelationEdgeStyle;fontSize=12;html=1;endArrow=ERzeroToMany;startArrow=ERmandOne;rounded=0;exitX=1.001;exitY=0.276;exitDx=0;exitDy=0;exitPerimeter=0;entryX=-0.006;entryY=0.677;entryDx=0;entryDy=0;entryPerimeter=0;endFill=0;" parent="1" source="2" target="7" edge="1"><mxGeometry width="100" height="100" relative="1" as="geometry"><mxPoint x="360" y="470" as="sourcePoint"/><mxPoint x="290" y="200" as="targetPoint"/></mxGeometry></mxCell><mxCell id="15" value="" style="edgeStyle=entityRelationEdgeStyle;fontSize=12;html=1;endArrow=ERmandOne;startArrow=ERmandOne;rounded=0;exitX=1.001;exitY=0.817;exitDx=0;exitDy=0;exitPerimeter=0;entryX=-0.001;entryY=0.308;entryDx=0;entryDy=0;entryPerimeter=0;" parent="1" source="7" target="4" edge="1"><mxGeometry width="100" height="100" relative="1" as="geometry"><mxPoint x="490" y="220" as="sourcePoint"/><mxPoint x="580" y="160" as="targetPoint"/></mxGeometry></mxCell></root></mxGraphModel></diagram></mxfile>